<svg xmlns="http://www.w3.org/2000/svg" xmlns:xlink="http://www.w3.org/1999/xlink" id="Layer_1" x="0" y="0" version="1.1" viewBox="0 0 200 200" xml:space="preserve" style="enable-background:new 0 0 200 200"><style type="text/css">.st0{fill:#fff}.st1{display:none}.st2{display:inline;fill:none;stroke:#9e9e9e;stroke-width:.25;stroke-miterlimit:10}</style><g id="Layer_1_1_"><g><rect width="160" height="160" x="20" y="20" class="st0"/></g></g><g class="st1"><line x1="100" x2="100" y1="0" y2="200" class="st2"/><path d="M195.9,100" class="st2"/><path d="M4,100" class="st2"/><line x1="0" x2="200" y1="200" y2="0" class="st2"/><line x1="100" x2="200" y1="0" y2="100" class="st2"/><line x1="0" x2="100" y1="100" y2="199.9" class="st2"/><line x1="200" x2="100" y1="100" y2="200" class="st2"/><line x1="100" x2="0" y1=".1" y2="100" class="st2"/><line x1="130" x2="130" y1="0" y2="200" class="st2"/><line x1="70" x2="70" y1="0" y2="200" class="st2"/><line x1="30" x2="30" y1="0" y2="200" class="st2"/><line x1="170" x2="170" y1="0" y2="200" class="st2"/><line x1="200" x2="0" y1="100" y2="100" class="st2"/><line x1="200" x2="0" y1="130" y2="130" class="st2"/><line x1="200" x2="0" y1="70" y2="70" class="st2"/><line x1="200" x2="0" y1="30" y2="30" class="st2"/><line x1="200" x2="0" y1="170" y2="170" class="st2"/><line x1="20" x2="20" y1=".1" y2="200.1" class="st2"/><line x1="180" x2="180" y1="0" y2="200" class="st2"/><line x1="0" x2="200" y1="180" y2="180" class="st2"/><line x1="0" x2="200" y1="20" y2="20" class="st2"/><line x1="160" x2="160" y1="0" y2="200" class="st2"/><line x1="100" x2="185" y1="15" y2="100" class="st2"/><line x1="15" x2="100" y1="100" y2="185" class="st2"/><line x1="185" x2="100" y1="100" y2="185" class="st2"/><line x1="100" x2="15" y1="15" y2="100" class="st2"/><line x1="0" x2="200" y1="0" y2="200" class="st2"/><line x1="60" x2="60" y1="0" y2="200" class="st2"/><line x1="140" x2="140" y1="0" y2="200" class="st2"/><line x1="0" x2="200" y1="140" y2="140" class="st2"/><line x1="0" x2="200" y1="60" y2="60" class="st2"/><line x1="190" x2="0" y1="200" y2="10" class="st2"/><line x1="10" x2="200" y1="0" y2="190" class="st2"/><path d="M200,200" class="st2"/><path d="M0,0" class="st2"/><line x1="190" x2="0" y1="200" y2="10" class="st2"/><line x1="10" x2="200" y1="0" y2="190" class="st2"/><line x1="0" x2="190" y1="190" y2="0" class="st2"/><line x1="200" x2="10" y1="10" y2="200" class="st2"/><line x1="40" x2="40" y1="0" y2="200" class="st2"/><line x1="200" x2="0" y1="160" y2="160" class="st2"/><line x1="200" x2="0" y1="40" y2="40" class="st2"/><rect width="56.7" height="56.7" x="71.7" y="71.7" class="st2" transform="matrix(0.7071 -0.7071 0.7071 0.7071 -41.4485 100.0629)"/><line x1="0" x2="200" y1="150" y2="150" class="st2"/><line x1="150" x2="150" y1="200" y2="0" class="st2"/><line x1="50" x2="50" y1="200" y2="0" class="st2"/><line x1="200" x2="0" y1="50" y2="50" class="st2"/><line x1="110" x2="110" y1="0" y2="200" class="st2"/><line x1="120" x2="120" y1="0" y2="200" class="st2"/><line x1="80" x2="80" y1="200" y2="0" class="st2"/><line x1="90" x2="90" y1="200" y2="0" class="st2"/><line x1="0" x2="200" y1="70" y2="70" class="st2"/><line x1="0" x2="200" y1="130" y2="130" class="st2"/><line x1="0" x2="200" y1="90" y2="90" class="st2"/><line x1="0" x2="200" y1="80" y2="80" class="st2"/><line x1="200" x2="0" y1="120" y2="120" class="st2"/><line x1="200" x2="0" y1="110" y2="110" class="st2"/><line x1="10" x2="10" y1=".1" y2="200.1" class="st2"/><line x1="190" x2="190" y1=".1" y2="200.1" class="st2"/><line x1="0" x2="200" y1="10" y2="10" class="st2"/><line x1="0" x2="200" y1="190" y2="190" class="st2"/></g><g><g><path d="M149.2,113.9l-10.8-8.5c0.2-1.6,0.4-3.3,0.4-5c0-1.7-0.2-3.4-0.4-5l10.9-8.5c1-0.8,1.2-2.2,0.6-3.3 l-10.3-17.8c-0.6-1.1-2-1.5-3.1-1.1l-12.8,5.1c-2.7-2.1-5.6-3.8-8.7-5l-2-13.6c-0.2-1.2-1.2-2.2-2.5-2.2H89.9 c-1.3,0-2.4,0.9-2.5,2.2l-2,13.6c-3.1,1.3-6,3-8.7,5l-12.8-5.1c-1.2-0.5-2.5,0-3.1,1.1L50.4,83.6c-0.7,1.1-0.4,2.5,0.6,3.3 l10.9,8.5c-0.2,1.6-0.4,3.3-0.4,5c0,1.7,0.2,3.4,0.4,5L51,113.9c-1,0.8-1.2,2.2-0.6,3.3L60.7,135c0.6,1.1,2,1.5,3.1,1.1l12.8-5.1 c2.7,2.1,5.6,3.8,8.7,5l2,13.6c0.2,1.2,1.2,2.2,2.5,2.2h20.6c1.3,0,2.4-0.9,2.5-2.2l2-13.6c3.1-1.3,6-3,8.7-5l12.8,5.1 c1.2,0.5,2.5,0,3.1-1.1l10.3-17.8C150.4,116.1,150.2,114.7,149.2,113.9z M100.2,118.4c-9.9,0-18-8.1-18-18c0-9.9,8.1-18,18-18 c9.9,0,18,8.1,18,18C118.2,110.3,110.1,118.4,100.2,118.4z" class="st0"/></g></g></svg>