<svg xmlns="http://www.w3.org/2000/svg" xmlns:xlink="http://www.w3.org/1999/xlink" id="Layer_1" x="0" y="0" version="1.1" viewBox="0 0 200 200" xml:space="preserve" style="enable-background:new 0 0 200 200"><style type="text/css">.st0{fill:#fff}.st1{fill:#616161}.st2{fill:#607d8b}.st3{display:none}.st4{display:inline;stroke:#9e9e9e;stroke-width:.25;stroke-miterlimit:10}.st4,.st5{fill:none}</style><path d="M134.6,36.8L134.6,36.8v6.9v20.4h21.3h7.1l0,0L134.6,36.8L134.6,36.8z" class="st0"/><g><g><polygon points="179.6 73 179.6 73.1 179.7 73.1" class="st1"/></g><g><polygon points="126.8 20.2 126.8 20.3 126.9 20.3" class="st1"/></g><path d="M20.3,20.3L20,180h160V80l-60-60L20.3,20.3z" class="st2"/></g><g class="st3"><line x1="100" x2="100" y1="0" y2="200" class="st4"/><path d="M195.9,100" class="st4"/><path d="M4,100" class="st4"/><line x1="0" x2="200" y1="200" y2="0" class="st4"/><line x1="100" x2="200" y1="0" y2="100" class="st4"/><line x1="0" x2="100" y1="100" y2="199.9" class="st4"/><line x1="200" x2="100" y1="100" y2="200" class="st4"/><line x1="100" x2="0" y1=".1" y2="100" class="st4"/><line x1="130" x2="130" y1="0" y2="200" class="st4"/><line x1="70" x2="70" y1="0" y2="200" class="st4"/><line x1="30" x2="30" y1="0" y2="200" class="st4"/><line x1="170" x2="170" y1="0" y2="200" class="st4"/><line x1="200" x2="0" y1="100" y2="100" class="st4"/><line x1="200" x2="0" y1="130" y2="130" class="st4"/><line x1="200" x2="0" y1="70" y2="70" class="st4"/><line x1="200" x2="0" y1="30" y2="30" class="st4"/><line x1="200" x2="0" y1="170" y2="170" class="st4"/><line x1="20" x2="20" y1=".1" y2="200.1" class="st4"/><line x1="180" x2="180" y1="0" y2="200" class="st4"/><line x1="0" x2="200" y1="180" y2="180" class="st4"/><line x1="0" x2="200" y1="20" y2="20" class="st4"/><line x1="160" x2="160" y1="0" y2="200" class="st4"/><line x1="100" x2="185" y1="15" y2="100" class="st4"/><line x1="15" x2="100" y1="100" y2="185" class="st4"/><line x1="185" x2="100" y1="100" y2="185" class="st4"/><line x1="100" x2="15" y1="15" y2="100" class="st4"/><line x1="0" x2="200" y1="0" y2="200" class="st4"/><line x1="60" x2="60" y1="0" y2="200" class="st4"/><line x1="140" x2="140" y1="0" y2="200" class="st4"/><line x1="0" x2="200" y1="140" y2="140" class="st4"/><line x1="0" x2="200" y1="60" y2="60" class="st4"/><line x1="190" x2="0" y1="200" y2="10" class="st4"/><line x1="10" x2="200" y1="0" y2="190" class="st4"/><path d="M200,200" class="st4"/><path d="M0,0" class="st4"/><line x1="190" x2="0" y1="200" y2="10" class="st4"/><line x1="10" x2="200" y1="0" y2="190" class="st4"/><line x1="0" x2="190" y1="190" y2="0" class="st4"/><line x1="200" x2="10" y1="10" y2="200" class="st4"/><line x1="40" x2="40" y1="0" y2="200" class="st4"/><line x1="200" x2="0" y1="160" y2="160" class="st4"/><line x1="200" x2="0" y1="40" y2="40" class="st4"/><rect width="56.7" height="56.7" x="71.7" y="71.7" class="st4" transform="matrix(0.7071 -0.7071 0.7071 0.7071 -41.4393 100.0147)"/><line x1="0" x2="200" y1="150" y2="150" class="st4"/><line x1="150" x2="150" y1="200" y2="0" class="st4"/><line x1="50" x2="50" y1="200" y2="0" class="st4"/><line x1="200" x2="0" y1="50" y2="50" class="st4"/><line x1="110" x2="110" y1="0" y2="200" class="st4"/><line x1="120" x2="120" y1="0" y2="200" class="st4"/><line x1="80" x2="80" y1="200" y2="0" class="st4"/><line x1="90" x2="90" y1="200" y2="0" class="st4"/><line x1="0" x2="200" y1="70" y2="70" class="st4"/><line x1="0" x2="200" y1="130" y2="130" class="st4"/><line x1="0" x2="200" y1="90" y2="90" class="st4"/><line x1="0" x2="200" y1="80" y2="80" class="st4"/><line x1="200" x2="0" y1="120" y2="120" class="st4"/><line x1="200" x2="0" y1="110" y2="110" class="st4"/><line x1="10" x2="10" y1=".1" y2="200.1" class="st4"/><line x1="190" x2="190" y1=".1" y2="200.1" class="st4"/><line x1="0" x2="200" y1="10" y2="10" class="st4"/><line x1="0" x2="200" y1="190" y2="190" class="st4"/></g><rect width="100" height="64.9" x="50" y="87.5" class="st5"/><polygon points="125.1 40.2 159.8 75 125.1 74.9" class="st0"/><rect width="100" height="10" x="50" y="140" class="st0"/><rect width="100" height="10.1" x="50" y="110" class="st0"/><rect width="50" height="10" x="50" y="80.1" class="st0"/></svg>