<svg xmlns="http://www.w3.org/2000/svg" xmlns:xlink="http://www.w3.org/1999/xlink" id="Layer_1" x="0" y="0" version="1.1" viewBox="0 0 22 22" xml:space="preserve" style="enable-background:new 0 0 22 22"><style type="text/css">.st0{display:none}.st1,.st2,.st3,.st4{fill:none;stroke-miterlimit:10}.st1{display:inline;stroke:#9e9e9e;stroke-width:2.000000e-02}.st2,.st3,.st4{stroke:#4caf50;stroke-width:2}.st3,.st4{stroke:#fff}.st4{stroke-width:3}.st5{fill:#fff}</style><g class="st0"><line x1="11" x2="11" y1="0" y2="22" class="st1"/><path d="M21.5,11" class="st1"/><path d="M0.4,11" class="st1"/><line x1="0" x2="22" y1="22" y2="0" class="st1"/><line x1="11" x2="22" y1="0" y2="11" class="st1"/><line x1="0" x2="11" y1="11" y2="22" class="st1"/><line x1="22" x2="11" y1="11" y2="22" class="st1"/><line x1="11" x2="0" y1="0" y2="11" class="st1"/><line x1="14.3" x2="14.3" y1="0" y2="22" class="st1"/><line x1="7.7" x2="7.7" y1="0" y2="22" class="st1"/><line x1="3.3" x2="3.3" y1="0" y2="22" class="st1"/><line x1="18.7" x2="18.7" y1="0" y2="22" class="st1"/><line x1="22" x2="0" y1="11" y2="11" class="st1"/><line x1="22" x2="0" y1="14.3" y2="14.3" class="st1"/><line x1="22" x2="0" y1="7.7" y2="7.7" class="st1"/><line x1="22" x2="0" y1="3.3" y2="3.3" class="st1"/><line x1="22" x2="0" y1="18.7" y2="18.7" class="st1"/><line x1="2.2" x2="2.2" y1="0" y2="22" class="st1"/><line x1="19.8" x2="19.8" y1="0" y2="22" class="st1"/><line x1="0" x2="22" y1="19.8" y2="19.8" class="st1"/><line x1="0" x2="22" y1="2.2" y2="2.2" class="st1"/><line x1="17.6" x2="17.6" y1="0" y2="22" class="st1"/><line x1="11" x2="20.3" y1="1.6" y2="11" class="st1"/><line x1="1.6" x2="11" y1="11" y2="20.3" class="st1"/><line x1="20.3" x2="11" y1="11" y2="20.3" class="st1"/><line x1="11" x2="1.6" y1="1.6" y2="11" class="st1"/><line x1="0" x2="22" y1="0" y2="22" class="st1"/><line x1="6.6" x2="6.6" y1="0" y2="22" class="st1"/><line x1="15.4" x2="15.4" y1="0" y2="22" class="st1"/><line x1="0" x2="22" y1="15.4" y2="15.4" class="st1"/><line x1="0" x2="22" y1="6.6" y2="6.6" class="st1"/><line x1="20.9" x2="0" y1="22" y2="1.1" class="st1"/><line x1="1.1" x2="22" y1="0" y2="20.9" class="st1"/><path d="M22,22" class="st1"/><path d="M0,0" class="st1"/><line x1="20.9" x2="0" y1="22" y2="1.1" class="st1"/><line x1="1.1" x2="22" y1="0" y2="20.9" class="st1"/><line x1="0" x2="20.9" y1="20.9" y2="0" class="st1"/><line x1="22" x2="1.1" y1="1.1" y2="22" class="st1"/><line x1="4.4" x2="4.4" y1="0" y2="22" class="st1"/><line x1="22" x2="0" y1="17.6" y2="17.6" class="st1"/><line x1="22" x2="0" y1="4.4" y2="4.4" class="st1"/><rect width="6.2" height="6.2" x="7.9" y="7.9" class="st1" transform="matrix(0.7071 -0.7071 0.7071 0.7071 -4.5558 11.0001)"/><line x1="0" x2="22" y1="16.5" y2="16.5" class="st1"/><line x1="16.5" x2="16.5" y1="22" y2="0" class="st1"/><line x1="5.5" x2="5.5" y1="22" y2="0" class="st1"/><line x1="22" x2="0" y1="5.5" y2="5.5" class="st1"/><line x1="12.1" x2="12.1" y1="0" y2="22" class="st1"/><line x1="13.2" x2="13.2" y1="0" y2="22" class="st1"/><line x1="8.8" x2="8.8" y1="22" y2="0" class="st1"/><line x1="9.9" x2="9.9" y1="22" y2="0" class="st1"/><line x1="0" x2="22" y1="7.7" y2="7.7" class="st1"/><line x1="0" x2="22" y1="14.3" y2="14.3" class="st1"/><line x1="0" x2="22" y1="9.9" y2="9.9" class="st1"/><line x1="0" x2="22" y1="8.8" y2="8.8" class="st1"/><line x1="22" x2="0" y1="13.2" y2="13.2" class="st1"/><line x1="22" x2="0" y1="12.1" y2="12.1" class="st1"/><line x1="1.1" x2="1.1" y1="0" y2="22" class="st1"/><line x1="20.9" x2="20.9" y1="0" y2="22" class="st1"/><line x1="0" x2="22" y1="1.1" y2="1.1" class="st1"/><line x1="0" x2="22" y1="20.9" y2="20.9" class="st1"/></g><path d="M9.5,11.8" class="st2"/><path d="M13.2,16.5" class="st2"/><path d="M7.7,17.6" class="st3"/><path d="M9.5,17.6" class="st4"/><path d="M9.4,7.8" class="st4"/><path d="M14.3,13.2" class="st4"/><path d="M14.3,17.6" class="st4"/><g><polygon points="10.6 5.4 12.8 2.2 2.2 2.2 2.2 9.5 6.2 2.9" class="st5"/><path d="M15.8,2.2l-4.4,6.6L7,6.3l-4.8,8v5.5h17.6V2.2H15.8z M8.8,17.6H5.5v-4.4h3.3V17.6z M13.2,17.6H9.8V9.8h3.4 V17.6z M17.6,17.6h-3.4V6.5h3.4V17.6z" class="st5"/></g></svg>